<mxfile host="app.diagrams.net" modified="2023-05-20T17:50:51.070Z" agent="Mozilla/5.0 (Windows NT 10.0; Win64; x64) AppleWebKit/537.36 (KHTML, like Gecko) Chrome/113.0.0.0 Safari/537.36" etag="1HI_9yIbUwz-db883KW8" version="21.2.9" type="github">
  <diagram name="Page-1" id="uHLCG5tlInYg37TO-mWp">
    <mxGraphModel dx="1034" dy="430" grid="1" gridSize="10" guides="1" tooltips="1" connect="1" arrows="1" fold="1" page="1" pageScale="1" pageWidth="850" pageHeight="1100" math="0" shadow="0">
      <root>
        <mxCell id="0" />
        <mxCell id="1" parent="0" />
        <mxCell id="CM283pRT9hom1FDGgysl-1" value="" style="endArrow=none;html=1;rounded=0;strokeWidth=3;" edge="1" parent="1">
          <mxGeometry width="50" height="50" relative="1" as="geometry">
            <mxPoint x="110" y="110" as="sourcePoint" />
            <mxPoint x="640" y="110" as="targetPoint" />
          </mxGeometry>
        </mxCell>
        <mxCell id="CM283pRT9hom1FDGgysl-5" value="" style="endArrow=none;html=1;rounded=0;strokeWidth=2;" edge="1" parent="1">
          <mxGeometry width="50" height="50" relative="1" as="geometry">
            <mxPoint x="280" y="480" as="sourcePoint" />
            <mxPoint x="90" y="100" as="targetPoint" />
          </mxGeometry>
        </mxCell>
        <mxCell id="CM283pRT9hom1FDGgysl-6" value="" style="endArrow=none;html=1;rounded=0;strokeWidth=2;" edge="1" parent="1">
          <mxGeometry width="50" height="50" relative="1" as="geometry">
            <mxPoint x="200" y="272" as="sourcePoint" />
            <mxPoint x="680" y="272" as="targetPoint" />
          </mxGeometry>
        </mxCell>
        <mxCell id="CM283pRT9hom1FDGgysl-7" value="" style="endArrow=none;html=1;rounded=0;" edge="1" parent="1">
          <mxGeometry width="50" height="50" relative="1" as="geometry">
            <mxPoint x="240" y="352" as="sourcePoint" />
            <mxPoint x="720" y="352" as="targetPoint" />
          </mxGeometry>
        </mxCell>
        <mxCell id="CM283pRT9hom1FDGgysl-8" value="" style="endArrow=none;html=1;rounded=0;" edge="1" parent="1">
          <mxGeometry width="50" height="50" relative="1" as="geometry">
            <mxPoint x="280" y="432" as="sourcePoint" />
            <mxPoint x="760" y="432" as="targetPoint" />
          </mxGeometry>
        </mxCell>
        <mxCell id="CM283pRT9hom1FDGgysl-9" value="master branch" style="text;html=1;strokeColor=none;fillColor=none;align=center;verticalAlign=middle;whiteSpace=wrap;rounded=0;" vertex="1" parent="1">
          <mxGeometry x="130" y="80" width="100" height="30" as="geometry" />
        </mxCell>
        <mxCell id="CM283pRT9hom1FDGgysl-10" value="develop branch /testing team" style="text;html=1;align=center;verticalAlign=middle;resizable=0;points=[];autosize=1;strokeColor=none;fillColor=none;" vertex="1" parent="1">
          <mxGeometry x="190" y="240" width="180" height="30" as="geometry" />
        </mxCell>
        <mxCell id="CM283pRT9hom1FDGgysl-11" value="f1 branch&amp;nbsp; /developers" style="text;html=1;align=center;verticalAlign=middle;resizable=0;points=[];autosize=1;strokeColor=none;fillColor=none;" vertex="1" parent="1">
          <mxGeometry x="240" y="320" width="140" height="30" as="geometry" />
        </mxCell>
        <mxCell id="CM283pRT9hom1FDGgysl-12" value="f2 branch&amp;nbsp; &amp;nbsp;/developers" style="text;html=1;align=center;verticalAlign=middle;resizable=0;points=[];autosize=1;strokeColor=none;fillColor=none;" vertex="1" parent="1">
          <mxGeometry x="270" y="400" width="150" height="30" as="geometry" />
        </mxCell>
        <mxCell id="CM283pRT9hom1FDGgysl-13" value="master.txt" style="text;html=1;align=center;verticalAlign=middle;resizable=0;points=[];autosize=1;strokeColor=#82b366;fillColor=#d5e8d4;" vertex="1" parent="1">
          <mxGeometry x="310" y="78" width="80" height="30" as="geometry" />
        </mxCell>
        <mxCell id="CM283pRT9hom1FDGgysl-15" value="f2.txt" style="text;html=1;align=center;verticalAlign=middle;resizable=0;points=[];autosize=1;strokeColor=#d79b00;fillColor=#ffe6cc;" vertex="1" parent="1">
          <mxGeometry x="425" y="400" width="50" height="30" as="geometry" />
        </mxCell>
        <mxCell id="CM283pRT9hom1FDGgysl-16" value="" style="endArrow=classic;html=1;rounded=0;" edge="1" parent="1">
          <mxGeometry width="50" height="50" relative="1" as="geometry">
            <mxPoint x="520" y="432" as="sourcePoint" />
            <mxPoint x="520" y="282" as="targetPoint" />
          </mxGeometry>
        </mxCell>
        <mxCell id="CM283pRT9hom1FDGgysl-17" value="" style="endArrow=classic;html=1;rounded=0;" edge="1" parent="1">
          <mxGeometry width="50" height="50" relative="1" as="geometry">
            <mxPoint x="600" y="352" as="sourcePoint" />
            <mxPoint x="600" y="282" as="targetPoint" />
          </mxGeometry>
        </mxCell>
        <mxCell id="CM283pRT9hom1FDGgysl-18" value="" style="endArrow=classic;html=1;rounded=0;exitX=0.385;exitY=0;exitDx=0;exitDy=0;exitPerimeter=0;" edge="1" parent="1" source="CM283pRT9hom1FDGgysl-24">
          <mxGeometry width="50" height="50" relative="1" as="geometry">
            <mxPoint x="590" y="200" as="sourcePoint" />
            <mxPoint x="495" y="110" as="targetPoint" />
          </mxGeometry>
        </mxCell>
        <mxCell id="CM283pRT9hom1FDGgysl-29" value="" style="edgeStyle=orthogonalEdgeStyle;rounded=0;orthogonalLoop=1;jettySize=auto;html=1;exitX=0.026;exitY=0.679;exitDx=0;exitDy=0;exitPerimeter=0;" edge="1" parent="1" source="CM283pRT9hom1FDGgysl-19" target="CM283pRT9hom1FDGgysl-28">
          <mxGeometry relative="1" as="geometry">
            <Array as="points">
              <mxPoint x="855" y="120" />
            </Array>
          </mxGeometry>
        </mxCell>
        <mxCell id="CM283pRT9hom1FDGgysl-19" value="hotfix.txt" style="ellipse;whiteSpace=wrap;html=1;fillColor=#f8cecc;strokeColor=#b85450;" vertex="1" parent="1">
          <mxGeometry x="850" y="20" width="180" height="110" as="geometry" />
        </mxCell>
        <mxCell id="CM283pRT9hom1FDGgysl-20" value="emergency/hotfix branch&lt;br&gt;/technical expert team" style="text;html=1;align=center;verticalAlign=middle;resizable=0;points=[];autosize=1;strokeColor=none;fillColor=none;" vertex="1" parent="1">
          <mxGeometry x="870" y="140" width="150" height="40" as="geometry" />
        </mxCell>
        <mxCell id="CM283pRT9hom1FDGgysl-22" value="&lt;b&gt;production ready code&lt;/b&gt;&lt;br&gt;master.txt, f1.txt, f2.txt" style="whiteSpace=wrap;html=1;aspect=fixed;fillColor=#fa6800;fontColor=#000000;strokeColor=#C73500;" vertex="1" parent="1">
          <mxGeometry x="460" y="20" width="90" height="90" as="geometry" />
        </mxCell>
        <mxCell id="CM283pRT9hom1FDGgysl-23" value="f1.txt" style="text;html=1;align=center;verticalAlign=middle;resizable=0;points=[];autosize=1;strokeColor=#d79b00;fillColor=#ffe6cc;" vertex="1" parent="1">
          <mxGeometry x="395" y="320" width="50" height="30" as="geometry" />
        </mxCell>
        <mxCell id="CM283pRT9hom1FDGgysl-24" value="f1.txt , f2.txt" style="text;html=1;align=center;verticalAlign=middle;resizable=0;points=[];autosize=1;strokeColor=#d6b656;fillColor=#fff2cc;" vertex="1" parent="1">
          <mxGeometry x="460" y="240" width="90" height="30" as="geometry" />
        </mxCell>
        <mxCell id="CM283pRT9hom1FDGgysl-25" value="" style="endArrow=classic;html=1;rounded=0;" edge="1" parent="1" target="CM283pRT9hom1FDGgysl-19">
          <mxGeometry width="50" height="50" relative="1" as="geometry">
            <mxPoint x="550" y="40" as="sourcePoint" />
            <mxPoint x="780" y="40" as="targetPoint" />
            <Array as="points">
              <mxPoint x="620" y="40" />
              <mxPoint x="700" y="40" />
              <mxPoint x="740" y="40" />
              <mxPoint x="800" y="40" />
            </Array>
          </mxGeometry>
        </mxCell>
        <mxCell id="CM283pRT9hom1FDGgysl-28" value="&lt;b&gt;Final code&lt;/b&gt;&lt;br&gt;master.txt&lt;br&gt;f1.txt&lt;br&gt;f2.txt&lt;br&gt;hotfix.txt" style="whiteSpace=wrap;html=1;fillColor=#60a917;strokeColor=#2D7600;fontColor=#ffffff;" vertex="1" parent="1">
          <mxGeometry x="590" y="60" width="100" height="110" as="geometry" />
        </mxCell>
        <mxCell id="CM283pRT9hom1FDGgysl-30" value="merge f1 on develop" style="text;html=1;align=center;verticalAlign=middle;resizable=0;points=[];autosize=1;strokeColor=none;fillColor=none;" vertex="1" parent="1">
          <mxGeometry x="520" y="382" width="130" height="30" as="geometry" />
        </mxCell>
        <mxCell id="CM283pRT9hom1FDGgysl-32" value="merge f2 on develop" style="text;html=1;align=center;verticalAlign=middle;resizable=0;points=[];autosize=1;strokeColor=none;fillColor=none;" vertex="1" parent="1">
          <mxGeometry x="600" y="312" width="130" height="30" as="geometry" />
        </mxCell>
        <mxCell id="CM283pRT9hom1FDGgysl-33" value="merge develop on master" style="text;html=1;align=center;verticalAlign=middle;resizable=0;points=[];autosize=1;strokeColor=none;fillColor=none;" vertex="1" parent="1">
          <mxGeometry x="490" y="200" width="160" height="30" as="geometry" />
        </mxCell>
        <mxCell id="CM283pRT9hom1FDGgysl-34" value="create hotfix from master" style="text;html=1;align=center;verticalAlign=middle;resizable=0;points=[];autosize=1;strokeColor=none;fillColor=none;" vertex="1" parent="1">
          <mxGeometry x="580" y="20" width="160" height="30" as="geometry" />
        </mxCell>
        <mxCell id="CM283pRT9hom1FDGgysl-36" value="merge hotfix to master" style="text;html=1;align=center;verticalAlign=middle;resizable=0;points=[];autosize=1;strokeColor=none;fillColor=none;" vertex="1" parent="1">
          <mxGeometry x="690" y="130" width="140" height="30" as="geometry" />
        </mxCell>
      </root>
    </mxGraphModel>
  </diagram>
</mxfile>
